<svg xmlns="http://www.w3.org/2000/svg" width="800" height="500" viewBox="0 0 800 500" font-family="JetBrains Mono, monospace">
  <rect width="800" height="500" fill="#0B0F14"/>

  <!-- navbar mini -->
  <text x="40" y="40" fill="#F5F7FA" font-size="14">~/portfolio</text>
  <text x="560" y="40" fill="#8C96A3" font-size="12" letter-spacing="1">01. 02. 03. 04. 05.</text>
  <line x1="40" y1="56" x2="760" y2="56" stroke="#1F2733"/>

  <!-- jendela terminal game -->
  <rect x="60" y="80" width="680" height="320" rx="8" fill="#121826" stroke="#1F2733"/>
  <rect x="60" y="80" width="680" height="40" rx="8" fill="#0B0F14"/>
  <rect x="60" y="110" width="680" height="10" fill="#0B0F14"/>
  <circle cx="86" cy="100" r="5" fill="#1F2733"/>
  <circle cx="102" cy="100" r="5" fill="#1F2733"/>
  <circle cx="118" cy="100" r="5" fill="#1F2733"/>
  <text x="140" y="105" fill="#8C96A3" font-size="12">~/dino-run.js</text>
  <text x="700" y="105" fill="#8C96A3" font-size="12" text-anchor="end">SKOR 0042</text>

  <!-- latar grid -->
  <g stroke="#1F2733" stroke-width="1" opacity="0.6">
    <line x1="150" y1="120" x2="150" y2="370"/>
    <line x1="250" y1="120" x2="250" y2="370"/>
    <line x1="350" y1="120" x2="350" y2="370"/>
    <line x1="450" y1="120" x2="450" y2="370"/>
    <line x1="550" y1="120" x2="550" y2="370"/>
    <line x1="650" y1="120" x2="650" y2="370"/>
  </g>

  <!-- garis tanah putus-putus -->
  <line x1="80" y1="372" x2="720" y2="372" stroke="#1F2733" stroke-width="2" stroke-dasharray="12 10"/>

  <!-- dino piksel (biru) -->
  <g fill="#4C82FF">
    <rect x="128" y="276" width="18" height="6"/>
    <rect x="122" y="282" width="24" height="6"/>
    <rect x="116" y="288" width="30" height="6"/>
    <rect x="116" y="294" width="36" height="6"/>
    <rect x="110" y="300" width="42" height="6"/>
    <rect x="116" y="306" width="36" height="6"/>
    <rect x="116" y="312" width="18" height="6"/>
    <rect x="110" y="318" width="24" height="6"/>
    <rect x="110" y="324" width="18" height="6"/>
    <rect x="110" y="330" width="12" height="6"/>
    <rect x="128" y="330" width="6" height="6"/>
    <rect x="110" y="336" width="6" height="6"/>
    <rect x="128" y="336" width="6" height="6"/>
    <rect x="110" y="342" width="6" height="6"/>
    <rect x="134" y="342" width="6" height="6"/>
  </g>

  <!-- rintangan: bug piksel -->
  <g fill="#F5F7FA">
    <rect x="352" y="336" width="12" height="6"/>
    <rect x="346" y="342" width="24" height="6"/>
    <rect x="340" y="348" width="36" height="6"/>
    <rect x="340" y="354" width="12" height="6"/>
    <rect x="364" y="354" width="12" height="6"/>
    <rect x="340" y="360" width="36" height="6"/>
    <rect x="340" y="366" width="6" height="6"/>
    <rect x="352" y="366" width="12" height="6"/>
    <rect x="370" y="366" width="6" height="6"/>
  </g>

  <!-- rintangan: { } dan 404 -->
  <text x="480" y="378" fill="#F5F7FA" font-size="34" font-weight="bold">404</text>
  <text x="600" y="378" fill="#F5F7FA" font-size="34" font-weight="bold">{ }</text>

  <!-- kursor -->
  <rect x="700" y="340" width="10" height="18" fill="#4C82FF"/>

  <!-- ticker bawah -->
  <rect x="40" y="430" width="720" height="40" fill="#121826"/>
  <text x="50" y="456" fill="#8C96A3" font-size="12" letter-spacing="1">$ npm install kesuksesan ✦ 404: rasa takut tidak ditemukan ✦ git commit -m "rapi"</text>
</svg>
